Coordinates
version=1
nRows=4
nColumns=63
inDegrees=yes

Units are S.I. units (second, meters, Newtons, ...)
If the header above contains a line with 'inDegrees', this indicates whether rotational values are in degrees (yes) or radians (no).

endheader
time	pelvis_tilt	pelvis_list	pelvis_rotation	pelvis_tx	pelvis_ty	pelvis_tz	hip_flexion_r	hip_adduction_r	hip_rotation_r	knee_angle_r	knee_angle_r_beta	ankle_angle_r	subtalar_angle_r	mtp_angle_r	hip_flexion_l	hip_adduction_l	hip_rotation_l	knee_angle_l	knee_angle_l_beta	ankle_angle_l	subtalar_angle_l	mtp_angle_l	L5_S1_Flex_Ext	L5_S1_Lat_Bending	L5_S1_axial_rotation	L4_L5_Flex_Ext	L4_L5_Lat_Bending	L4_L5_axial_rotation	L3_L4_Flex_Ext	L3_L4_Lat_Bending	L3_L4_axial_rotation	L2_L3_Flex_Ext	L2_L3_Lat_Bending	L2_L3_axial_rotation	L1_L2_Flex_Ext	L1_L2_Lat_Bending	L1_L2_axial_rotation	L1_T12_Flex_Ext	L1_T12_Lat_Bending	L1_T12_axial_rotation	Abs_r3	Abs_r2	Abs_r1	Abs_t1	Abs_t2	neck_flexion	neck_bending	neck_rotation	arm_flex_r	arm_add_r	arm_rot_r	elbow_flex_r	pro_sup_r	wrist_flex_r	wrist_dev_r	arm_flex_l	arm_add_l	arm_rot_l	elbow_flex_l	pro_sup_l	wrist_flex_l	wrist_dev_l
      2.10000000	      1.32896687	     -7.20847000	     84.97088416	      0.24190589	      1.12443762	      0.40715645	      4.72180663	     -0.03249713	      7.05117181	     11.88275721	      0.20739324	     28.77280546	     14.21263178	      0.00000000	      1.97779364	     -3.48794737	    -19.18202788	      7.53435436	      0.13149929	     30.67671208	     13.91847146	      0.00000000	      0.07296331	      0.32824055	      2.27274945	      0.13550016	      0.43655993	      2.41479629	      0.11987142	      0.79808407	      2.41479629	      0.08338977	      0.79808407	      1.98865577	      0.06775373	      0.66934813	      1.84660893	      0.04169124	      0.50844461	      1.70456208	      0.52116963	      3.71312276	     12.64035060	      0.00000000	      0.00000000	     24.75475266	      0.23714872	      9.60753649	     -2.60318172	    -13.63328153	     -0.07982235	     59.01997938	     87.60408625	     -1.08363683	      5.66999751	      2.70253252	    -15.80299442	      4.23736792	     61.13832655	     87.87668244	      5.80120126	     18.31931091
      2.12000000	      1.78325165	     -7.22416158	     85.44702713	      0.23964022	      1.12380888	      0.40963343	      4.99068009	      0.32581078	      6.61221367	     12.25829609	      0.21394763	     28.74481725	     14.04088153	      0.00000000	      2.26585247	     -3.90013796	    -18.73665642	      7.79801282	      0.13610100	     30.52558582	     13.85167634	      0.00000000	      0.05880214	      0.41427621	      2.17518778	      0.10920145	      0.55098736	      2.31113702	      0.09660603	      1.00727118	      2.31113702	      0.06720497	      1.00727118	      1.90328931	      0.05460367	      0.84479205	      1.76734007	      0.03359954	      0.64171385	      1.63139083	      0.42001780	      4.68637535	     12.09774187	      0.00000000	      0.00000000	     25.10412532	     -0.38201154	     10.28872207	     -0.86257425	    -14.39147854	      3.22077942	     53.33774411	     87.88937895	     -0.53104717	      5.51704450	      4.31715942	    -15.12504181	      7.47321634	     55.67601624	     88.26148723	      6.13417222	     17.60973890
      2.14000000	      2.44222240	     -7.37589398	     86.58583724	      0.23662804	      1.12308872	      0.41203852	      5.12850093	      0.84366863	      5.62628560	     12.16574856	      0.21233237	     28.34314534	     13.79815195	      0.00000000	      2.79734268	     -4.49461449	    -17.29619584	      8.12184878	      0.14175300	     30.01753842	     13.45261277	      0.00000000	      0.06037620	      0.52193440	      2.02269523	      0.11212464	      0.69417275	      2.14911369	      0.09919206	      1.26903130	      2.14911369	      0.06900396	      1.26903130	      1.76985833	      0.05606534	      1.06432863	      1.64343988	      0.03449896	      0.80847638	      1.51702143	      0.43126116	      5.90422631	     11.24962409	      0.00000000	      0.00000000	     25.87567771	     -1.19029427	     10.74694744	      0.84288407	    -15.34475494	      7.46845578	     47.45688883	     87.90034390	     -1.63247728	      3.53032097	      6.32402572	    -14.93453453	     13.39306876	     49.86118942	     88.43332157	      5.20364698	     12.25063936
      2.16000000	      2.87665181	     -7.58069063	     87.36579365	      0.23386562	      1.12231393	      0.41428964	      5.42404976	      1.12798467	      4.80932594	     12.20661608	      0.21304564	     28.00660384	     13.72647804	      0.00000000	      3.28535769	     -4.73402293	    -14.98506121	      8.26826292	      0.14430841	     29.10325747	     11.43198779	      0.00000000	      0.06796557	      0.60596568	      2.02166774	      0.12621886	      0.80593436	      2.14802197	      0.11166064	      1.47334496	      2.14802197	      0.07767785	      1.47334496	      1.76895927	      0.06311283	      1.23568522	      1.64260504	      0.03883553	      0.93864084	      1.51625080	      0.48547128	      6.85480501	     11.24390945	      0.00000000	      0.00000000	     26.51149699	     -2.37511428	     10.57691507	      2.02180284	    -16.06565138	     10.95512632	     42.47228800	     87.84887790	     -3.01356136	      3.37321510	      8.80667961	    -15.18227590	     23.22432685	     44.58594585	     88.53063447	     -0.17778960	      6.28807069
